# xmcd
#
# Track frame offsets: 
#        150
#        25595
#        61461
#        87453
#
# Disc length: 1739 seconds
#
# Revision: 0
# Processed by: cddbd v1.5.2PL0 Copyright (c) Steve Scherf et al.
# Submitted via: ExactAudioCopy v1.3
#
DISCID=2a06c904
DTITLE=Gigi D'Agostino - New Year's Day (Underground Music Australia C
DTITLE=DM)
DYEAR=1996
DGENRE=Trance
TTITLE0=New Year's Day (Radio Edit)
TTITLE1=New Year's Day (Ext. Mix)
TTITLE2=Guitar
TTITLE3=Purezza
EXTD=
EXTT0=
EXTT1=
EXTT2=
EXTT3=
PLAYORDER=
